<?xml version="1.0" standalone="no"?><!DOCTYPE svg PUBLIC "-//W3C//DTD SVG 1.1//EN" "http://www.w3.org/Graphics/SVG/1.1/DTD/svg11.dtd"><svg t="1537494399738" class="icon" style="" viewBox="0 0 1024 1024" version="1.1" xmlns="http://www.w3.org/2000/svg" p-id="2225" xmlns:xlink="http://www.w3.org/1999/xlink" width="16" height="16"><defs><style type="text/css"></style></defs><path d="M512 0C229.22752 0 0 229.22752 0 512s229.22752 512 512 512 512-229.22752 512-512S794.77248 0 512 0zM306.02752 179.32288l51.95264 51.9424C284.544 283.20256 236.17024 365.6192 230.80448 460.55424H159.15008c5.376-114.64192 60.9024-214.95808 146.87744-281.23136zM443.9552 799.08864h143.30368c0 10.76224-1.792 19.72224-5.376 28.672-8.92928 21.48864-28.66688 37.62176-51.94752 42.99264-5.36576 1.77664-8.94976 1.77664-14.32576 1.77664-39.39328 0.01536-71.6544-32.22528-71.6544-73.44128z m358.25664-34.02752H229.00736v-35.8144l71.6544-71.63904V478.464c0-109.27104 59.10016-200.62208 161.20832-225.70496v-25.06752c0-30.45888 23.27552-53.73952 53.73952-53.73952 30.44864 0 53.74464 23.28064 53.74464 53.73952v25.06752c102.0928 23.29088 161.2032 116.43392 161.2032 225.70496v179.14368l71.64928 71.63904v35.8144h0.00512z m-1.78688-304.50688c-5.376-94.93504-53.76-177.35168-127.19104-229.28896l51.94752-51.9424c84.19328 66.26816 141.50656 166.58944 146.88256 281.23136h-71.63904z" fill="#eda200" p-id="2226"></path></svg>