<?xml version="1.0" encoding="iso-8859-1"?>
<!-- Generator: Adobe Illustrator 19.0.0, SVG Export Plug-In . SVG Version: 6.00 Build 0)  -->
<svg version="1.1" id="Capa_1" xmlns="http://www.w3.org/2000/svg" xmlns:xlink="http://www.w3.org/1999/xlink" x="0px" y="0px"
	 viewBox="0 0 512 512" style="enable-background:new 0 0 512 512;" xml:space="preserve">
<circle style="fill:#FFD164;" cx="256" cy="256" r="256"/>
<path style="fill:#FFE17D;" d="M372.427,221.524c-4.556-9.266-13.806-15.024-24.137-15.024h-47.573l39.863-82.472
	c4.782-9.907,4.153-21.383-1.694-30.694c-5.839-9.319-15.895-14.883-26.903-14.883h-79.371c-13.71,0-25.823,8.75-30.145,21.77
	l-51.323,154.891c-2.71,8.177-1.315,17.234,3.734,24.202c5.032,6.992,13.185,11.161,21.806,11.161h47.702l-37.161,118.29
	c-2.371,7.581-1.065,15.565,3.589,21.903c4.653,6.331,12.113,10.113,19.968,10.113c7.645,0,14.734-3.516,19.444-9.637
	l139.395-181.339C375.911,241.629,376.992,230.79,372.427,221.524z"/>
<path style="fill:#FFFFFF;" d="M348.289,227.149h-80.483l54.183-112.102c3.567-7.38-1.809-15.95-10.006-15.95h-79.37
	c-4.791,0-9.043,3.07-10.549,7.618l-51.319,154.888c-1.343,4.052,1.675,8.231,5.944,8.231h75.823l-45.583,145.12
	c-1.329,4.231,4.229,7.124,6.932,3.607l139.393-181.335C356.419,233.108,353.483,227.149,348.289,227.149z"/>
<path style="fill:#FFC350;" d="M289.032,478.968c-141.385,0-256-114.615-256-256c0-62.282,22.26-119.352,59.233-163.735
	C35.895,106.192,0,176.897,0,256c0,141.385,114.615,256,256,256c79.104,0,149.809-35.896,196.769-92.267
	C408.385,456.707,351.315,478.968,289.032,478.968z"/>
<g>
</g>
<g>
</g>
<g>
</g>
<g>
</g>
<g>
</g>
<g>
</g>
<g>
</g>
<g>
</g>
<g>
</g>
<g>
</g>
<g>
</g>
<g>
</g>
<g>
</g>
<g>
</g>
<g>
</g>
</svg>
