<?xml version="1.0"?>
<svg xmlns="http://www.w3.org/2000/svg" xmlns:xlink="http://www.w3.org/1999/xlink" version="1.1" id="Capa_1" x="0px" y="0px" viewBox="0 0 512 512" style="enable-background:new 0 0 512 512;" xml:space="preserve" width="512px" height="512px" class=""><g transform="matrix(-1.83697e-16 -1 1 -1.83697e-16 0 512)"><path style="fill:#AAAAAA" d="M507.765,106.336L405.649,4.235c-5.632-5.646-14.763-5.646-20.424,0L48.285,341.189  c-5.646,5.646-5.646,14.763,0,20.437C58.525,371.852,3.627,474.808,0,482.445L29.412,512c7.624-3.627,110.735-58.525,120.975-48.285  c5.646,5.661,14.777,5.661,20.424,0L507.766,126.76C513.411,121.127,513.411,111.982,507.765,106.336" data-original="#DD2E44" class="active-path" data-old_color="#aaaaaa"/><path style="fill:#C8C8C8" d="M181.461,453.13L58.864,330.533L375.567,13.831l122.596,122.596L181.461,453.13z" data-original="#EA596E" class="" data-old_color="#c8c8c8"/><g>
	<path style="fill:#292F33" d="M457.306,177.294L334.71,54.697l20.424-20.437l122.611,122.596L457.306,177.294z" data-original="#292F33" class=""/>
	<path style="fill:#292F33" d="M201.898,432.699L79.301,310.102l20.437-20.437L222.32,412.276L201.898,432.699z" data-original="#292F33" class=""/>
</g><path style="fill:#4D3B42" d="M382.377,133.023c-21.618-21.633-85.078,6.77-141.754,63.417  c-56.648,56.661-85.035,120.136-63.417,141.754c21.618,21.633,85.092-6.756,141.754-63.417S404.009,154.641,382.377,133.023" data-original="#BE1931" class="" data-old_color="#4d3b42"/></g> </svg>
