<?xml version="1.0" standalone="no"?><!DOCTYPE svg PUBLIC "-//W3C//DTD SVG 1.1//EN" "http://www.w3.org/Graphics/SVG/1.1/DTD/svg11.dtd"><svg t="1537527453422" class="icon" style="" viewBox="0 0 1024 1024" version="1.1" xmlns="http://www.w3.org/2000/svg" p-id="2591" xmlns:xlink="http://www.w3.org/1999/xlink" width="16" height="16"><defs><style type="text/css"></style></defs><path d="M887.725253 513.034343c0 209.325253-169.761616 379.086869-379.086869 379.086869C299.313131 891.991919 129.551515 722.359596 129.551515 513.034343c0-209.325253 169.761616-379.086869 379.086869-379.086868 50.424242 0 98.521212 9.826263 142.480808 27.668687 138.731313 56.242424 236.606061 192.387879 236.606061 351.418181z m0 0" fill="#FBDF6C" p-id="2592"></path><path d="M580.783838 836.137374c-209.325253 0-379.086869-169.761616-379.086868-379.086869 0-111.838384 48.484848-212.428283 125.543434-281.729293C204.541414 238.028283 120.50101 365.640404 120.50101 513.034343 120.50101 722.359596 290.262626 892.121212 499.587879 892.121212c97.486869 0 186.440404-36.848485 253.543434-97.357576-51.717172 26.375758-110.286869 41.373737-172.347475 41.373738z m0 0" fill="#FAC56B" p-id="2593"></path><path d="M289.09899 486.529293c-28.185859 0-50.941414 22.755556-50.941414 50.941414h101.882828c0-28.056566-22.884848-50.941414-50.941414-50.941414z m444.638384 0c-28.185859 0-50.941414 22.755556-50.941414 50.941414h102.012121c-0.129293-28.056566-23.014141-50.941414-51.070707-50.941414z m0 0" fill="#F8A880" p-id="2594"></path><path d="M347.539394 395.636364c0-19.911111 16.161616-36.072727 36.072727-36.072728 19.911111 0 36.072727 16.161616 36.072727 36.072728 0 8.533333 6.852525 15.385859 15.385859 15.385858 8.533333 0 15.385859-6.852525 15.385859-15.385858 0-36.848485-29.99596-66.973737-66.973738-66.973738-36.848485 0-66.973737 29.99596-66.973737 66.973738 0 8.533333 6.852525 15.385859 15.385858 15.385858 8.791919 0 15.644444-6.852525 15.644445-15.385858m291.555555-66.973738c-36.848485 0-66.973737 29.99596-66.973737 66.973738 0 8.533333 6.852525 15.385859 15.385859 15.385858 8.533333 0 15.385859-6.852525 15.385858-15.385858 0-19.911111 16.161616-36.072727 36.072728-36.072728s36.072727 16.161616 36.072727 36.072728c0 8.533333 6.852525 15.385859 15.385858 15.385858 8.533333 0 15.385859-6.852525 15.385859-15.385858 0.258586-36.848485-29.866667-66.973737-66.715152-66.973738" fill="#666666" p-id="2595"></path><path d="M511.353535 789.979798c-109.640404 0-198.464646-88.824242-198.464646-198.464646h396.8C709.818182 701.155556 620.993939 789.979798 511.353535 789.979798z m0 0" fill="#FFFFFF" p-id="2596"></path><path d="M332.412121 677.494949c5.171717 10.860606 11.377778 21.20404 18.488889 30.901011h320.905051c7.111111-9.69697 13.317172-20.040404 18.488888-30.901011H332.412121z m0 0" fill="#E6E6E6" p-id="2597"></path><path d="M511.353535 809.632323c-115.2 0-208.808081-93.737374-208.80808-208.808081 0-13.446465 10.989899-24.436364 24.436363-24.436363h368.743435c13.446465 0 24.436364 10.989899 24.436363 24.436363 0.129293 115.070707-93.608081 208.808081-208.808081 208.808081zM326.981818 596.557576c-2.327273 0-4.137374 1.810101-4.137374 4.137373 0 103.951515 84.557576 188.509091 188.509091 188.509091S699.862626 704.646465 699.862626 600.694949c0-2.327273-1.810101-4.137374-4.137373-4.137373H326.981818z m0 0" fill="#666666" p-id="2598"></path><path d="M511.353535 907.636364c-53.39798 0-105.244444-10.472727-153.987878-31.159596-47.062626-19.911111-89.470707-48.484848-125.802021-84.816162C195.232323 755.329293 166.658586 713.050505 146.747475 665.858586 126.189899 617.244444 115.717172 565.39798 115.717172 512s10.472727-105.244444 31.159596-153.987879c19.911111-47.062626 48.484848-89.470707 84.816161-125.80202 36.331313-36.331313 78.610101-64.905051 125.80202-84.816162 48.743434-20.686869 100.589899-31.030303 153.987879-31.030303s105.244444 10.472727 153.987879 31.030303c47.062626 19.911111 89.470707 48.484848 125.80202 84.816162 36.331313 36.331313 64.905051 78.610101 84.816162 125.80202 20.686869 48.743434 31.159596 100.589899 31.159596 153.987879s-10.472727 105.244444-31.159596 153.987879c-19.911111 47.062626-48.484848 89.470707-84.816162 125.80202-36.331313 36.331313-78.610101 64.905051-125.80202 84.816162-48.872727 20.557576-100.719192 31.030303-154.117172 31.030303z m0-763.086869C308.751515 144.549495 143.90303 309.39798 143.90303 512S308.751515 879.450505 511.353535 879.450505 878.80404 714.60202 878.80404 512 713.955556 144.549495 511.353535 144.549495z m0 0" fill="#666666" p-id="2599"></path></svg>