<?xml version="1.0" encoding="iso-8859-1"?>
<!-- Generator: Adobe Illustrator 19.0.0, SVG Export Plug-In . SVG Version: 6.00 Build 0)  -->
<svg version="1.1" id="Capa_1" xmlns="http://www.w3.org/2000/svg" xmlns:xlink="http://www.w3.org/1999/xlink" x="0px" y="0px"
	 viewBox="0 0 512 512" style="enable-background:new 0 0 512 512;" xml:space="preserve">
<g transform="matrix(1.25 0 0 -1.25 0 45)">
	<g>
		<g>
			<path style="fill:#FFCC4D;" d="M409.6-168.8c0-113.106-91.694-204.8-204.8-204.8S0-281.906,0-168.8S91.694,36,204.8,36
				S409.6-55.694,409.6-168.8"/>
			<path style="fill:#292F33;" d="M14.108-89.36c2.731-2.719,16.35-10.9,19.081-19.058s8.192-54.431,24.553-68.05
				c16.885-14.029,80.521-8.806,92.718-2.731c27.273,13.596,30.618,51.553,35.442,70.781c2.719,10.889,19.081,10.889,19.081,10.889
				s16.373,0,19.092-10.877c4.824-19.24,8.192-57.196,35.442-70.781c12.208-6.087,75.844-11.31,92.752,2.719
				c16.327,13.619,21.788,59.893,24.519,68.062c2.708,8.158,16.35,16.327,19.081,19.046c2.742,2.719,2.742,13.608,0,16.338
				c-5.45,5.439-69.791,10.286-139.071,2.719c-13.824-1.513-19.081-5.45-51.814-5.45c-32.711,0-37.99,3.937-51.803,5.439
				c-69.257,7.578-133.621,2.731-139.071-2.708C11.389-75.753,11.389-86.641,14.108-89.36"/>
			<path style="fill:#664500;" d="M311.012-232.846c-2.025,1.832-5.052,1.946-7.225,0.33c-0.444-0.33-44.624-32.996-98.987-32.996
				c-54.226,0-98.554,32.666-98.987,32.996c-2.173,1.616-5.2,1.479-7.225-0.33c-2.014-1.82-2.469-4.824-1.07-7.145
				c1.468-2.446,36.602-59.654,107.281-59.654s105.825,57.207,107.281,59.654C313.481-237.658,313.037-234.666,311.012-232.846"/>
		</g>
	</g>
</g>
<g>
</g>
<g>
</g>
<g>
</g>
<g>
</g>
<g>
</g>
<g>
</g>
<g>
</g>
<g>
</g>
<g>
</g>
<g>
</g>
<g>
</g>
<g>
</g>
<g>
</g>
<g>
</g>
<g>
</g>
</svg>
