<svg version="1.1" xmlns="http://www.w3.org/2000/svg"><symbol id="black" viewBox="0 0 512 512"><path d="M106.336 4.235L4.235 106.351c-5.646 5.632-5.646 14.763 0 20.424l336.954 336.94c5.646 5.646 14.763 5.646 20.437 0 10.226-10.24 113.182 44.658 120.819 48.285L512 482.588c-3.627-7.624-58.525-110.735-48.285-120.975a14.404 14.404 0 0 0 0-20.424L126.76 4.234c-5.633-5.645-14.778-5.645-20.424.001" data-original="#DD2E44" class="active-path" data-old_color="#5B3F33"/><path d="M453.13 330.539L330.533 453.136 13.831 136.433 136.427 13.837 453.13 330.539z" data-original="#EA596E" data-old_color="#79797b" fill="#79797b"/><path d="M177.294 54.694L54.697 177.29 34.26 156.866 156.856 34.255l20.438 20.439zM432.699 310.102L310.102 432.699l-20.437-20.437L412.276 289.68l20.423 20.422z" data-original="#292F33" fill="#292f33"/><path d="M133.023 129.623c-21.633 21.618 6.77 85.078 63.417 141.754 56.661 56.648 120.136 85.035 141.754 63.417 21.633-21.618-6.756-85.092-63.417-141.754s-120.136-85.049-141.754-63.417" data-original="#BE1931" data-old_color="#4d3b42" fill="#4d3b42"/></symbol><symbol id="blue" viewBox="0 0 512 512"><path d="M106.336 4.235L4.235 106.351c-5.646 5.632-5.646 14.763 0 20.424l336.954 336.94c5.646 5.646 14.763 5.646 20.437 0 10.226-10.24 113.182 44.658 120.819 48.285L512 482.588c-3.627-7.624-58.525-110.735-48.285-120.975a14.404 14.404 0 0 0 0-20.424L126.76 4.234c-5.633-5.645-14.778-5.645-20.424.001" data-original="#DD2E44" class="active-path" data-old_color="#1d2089" fill="#1d2089"/><path d="M453.13 330.539L330.533 453.136 13.831 136.433 136.427 13.837 453.13 330.539z" data-original="#EA596E" data-old_color="#766fb3" fill="#766fb3"/><path d="M177.294 54.694L54.697 177.29 34.26 156.866 156.856 34.255l20.438 20.439zM432.699 310.102L310.102 432.699l-20.437-20.437L412.276 289.68l20.423 20.422z" data-original="#292F33" fill="#292f33"/><path d="M133.023 129.623c-21.633 21.618 6.77 85.078 63.417 141.754 56.661 56.648 120.136 85.035 141.754 63.417 21.633-21.618-6.756-85.092-63.417-141.754s-120.136-85.049-141.754-63.417" data-original="#BE1931" data-old_color="#BE1931" fill="#4d3b42"/></symbol><symbol id="brown" viewBox="0 0 512 512"><path d="M106.336 4.235L4.235 106.351c-5.646 5.632-5.646 14.763 0 20.424l336.954 336.94c5.646 5.646 14.763 5.646 20.437 0 10.226-10.24 113.182 44.658 120.819 48.285L512 482.588c-3.627-7.624-58.525-110.735-48.285-120.975a14.404 14.404 0 0 0 0-20.424L126.76 4.234c-5.633-5.645-14.778-5.645-20.424.001" data-original="#DD2E44" class="active-path" data-old_color="#5b3f33" fill="#5b3f33"/><path d="M453.13 330.539L330.533 453.136 13.831 136.433 136.427 13.837 453.13 330.539z" data-original="#EA596E" data-old_color="#9b8b8b" fill="#9b8b8b"/><path d="M177.294 54.694L54.697 177.29 34.26 156.866 156.856 34.255l20.438 20.439zM432.699 310.102L310.102 432.699l-20.437-20.437L412.276 289.68l20.423 20.422z" data-original="#292F33" fill="#292f33"/><path d="M133.023 129.623c-21.633 21.618 6.77 85.078 63.417 141.754 56.661 56.648 120.136 85.035 141.754 63.417 21.633-21.618-6.756-85.092-63.417-141.754s-120.136-85.049-141.754-63.417" data-original="#BE1931" data-old_color="#4d3b42" fill="#4d3b42"/></symbol><symbol id="gray" viewBox="0 0 512 512"><path d="M106.336 4.235L4.235 106.351c-5.646 5.632-5.646 14.763 0 20.424l336.954 336.94c5.646 5.646 14.763 5.646 20.437 0 10.226-10.24 113.182 44.658 120.819 48.285L512 482.588c-3.627-7.624-58.525-110.735-48.285-120.975a14.404 14.404 0 0 0 0-20.424L126.76 4.234c-5.633-5.645-14.778-5.645-20.424.001" data-original="#DD2E44" class="active-path" data-old_color="#b18d73" fill="#b18d73"/><path d="M453.13 330.539L330.533 453.136 13.831 136.433 136.427 13.837 453.13 330.539z" data-original="#EA596E" data-old_color="#b3a69e" fill="#b3a69e"/><path d="M177.294 54.694L54.697 177.29 34.26 156.866 156.856 34.255l20.438 20.439zM432.699 310.102L310.102 432.699l-20.437-20.437L412.276 289.68l20.423 20.422z" data-original="#292F33" fill="#292f33"/><path d="M133.023 129.623c-21.633 21.618 6.77 85.078 63.417 141.754 56.661 56.648 120.136 85.035 141.754 63.417 21.633-21.618-6.756-85.092-63.417-141.754s-120.136-85.049-141.754-63.417" data-original="#BE1931" data-old_color="#4d3b42" fill="#4d3b42"/></symbol><symbol id="green" viewBox="0 0 512 512"><path d="M106.336 4.235L4.235 106.351c-5.646 5.632-5.646 14.763 0 20.424l336.954 336.94c5.646 5.646 14.763 5.646 20.437 0 10.226-10.24 113.182 44.658 120.819 48.285L512 482.588c-3.627-7.624-58.525-110.735-48.285-120.975a14.404 14.404 0 0 0 0-20.424L126.76 4.234c-5.633-5.645-14.778-5.645-20.424.001" data-original="#DD2E44" class="active-path" data-old_color="#18981d" fill="#18981d"/><path d="M453.13 330.539L330.533 453.136 13.831 136.433 136.427 13.837 453.13 330.539z" data-original="#EA596E" data-old_color="#71b175" fill="#71b175"/><path d="M177.294 54.694L54.697 177.29 34.26 156.866 156.856 34.255l20.438 20.439zM432.699 310.102L310.102 432.699l-20.437-20.437L412.276 289.68l20.423 20.422z" data-original="#292F33" fill="#292f33"/><path d="M133.023 129.623c-21.633 21.618 6.77 85.078 63.417 141.754 56.661 56.648 120.136 85.035 141.754 63.417 21.633-21.618-6.756-85.092-63.417-141.754s-120.136-85.049-141.754-63.417" data-original="#BE1931" data-old_color="#BE1931" fill="#4d3b42"/></symbol><symbol id="orange" viewBox="0 0 512 512"><path d="M106.336 4.235L4.235 106.351c-5.646 5.632-5.646 14.763 0 20.424l336.954 336.94c5.646 5.646 14.763 5.646 20.437 0 10.226-10.24 113.182 44.658 120.819 48.285L512 482.588c-3.627-7.624-58.525-110.735-48.285-120.975a14.404 14.404 0 0 0 0-20.424L126.76 4.234c-5.633-5.645-14.778-5.645-20.424.001" data-original="#DD2E44" class="active-path" data-old_color="#dd7013" fill="#dd7013"/><path d="M453.13 330.539L330.533 453.136 13.831 136.433 136.427 13.837 453.13 330.539z" data-original="#EA596E" data-old_color="#f6bc8c" fill="#f6bc8c"/><path d="M177.294 54.694L54.697 177.29 34.26 156.866 156.856 34.255l20.438 20.439zM432.699 310.102L310.102 432.699l-20.437-20.437L412.276 289.68l20.423 20.422z" data-original="#292F33" fill="#292f33"/><path d="M133.023 129.623c-21.633 21.618 6.77 85.078 63.417 141.754 56.661 56.648 120.136 85.035 141.754 63.417 21.633-21.618-6.756-85.092-63.417-141.754s-120.136-85.049-141.754-63.417" data-original="#BE1931" data-old_color="#BE1931" fill="#4d3b42"/></symbol><symbol id="pink" viewBox="0 0 512 512"><path d="M106.336 4.235L4.235 106.351c-5.646 5.632-5.646 14.763 0 20.424l336.954 336.94c5.646 5.646 14.763 5.646 20.437 0 10.226-10.24 113.182 44.658 120.819 48.285L512 482.588c-3.627-7.624-58.525-110.735-48.285-120.975a14.404 14.404 0 0 0 0-20.424L126.76 4.234c-5.633-5.645-14.778-5.645-20.424.001" data-original="#DD2E44" data-old_color="#7F6AA3" fill="#930192"/><path d="M453.13 330.539L330.533 453.136 13.831 136.433 136.427 13.837 453.13 330.539z" data-original="#EA596E" data-old_color="#9a74a5" fill="#9a74a5"/><path d="M177.294 54.694L54.697 177.29 34.26 156.866 156.856 34.255l20.438 20.439zM432.699 310.102L310.102 432.699l-20.437-20.437L412.276 289.68l20.423 20.422z" data-original="#292F33" fill="#292f33"/><path d="M133.023 129.623c-21.633 21.618 6.77 85.078 63.417 141.754 56.661 56.648 120.136 85.035 141.754 63.417 21.633-21.618-6.756-85.092-63.417-141.754s-120.136-85.049-141.754-63.417" data-original="#BE1931" class="active-path" data-old_color="#4d3b42" fill="#4d3b42"/></symbol><symbol id="purple" viewBox="0 0 512 512"><path d="M106.336 4.235L4.235 106.351c-5.646 5.632-5.646 14.763 0 20.424l336.954 336.94c5.646 5.646 14.763 5.646 20.437 0 10.226-10.24 113.182 44.658 120.819 48.285L512 482.588c-3.627-7.624-58.525-110.735-48.285-120.975a14.404 14.404 0 0 0 0-20.424L126.76 4.234c-5.633-5.645-14.778-5.645-20.424.001" data-original="#DD2E44" class="active-path" data-old_color="#5c2e9b" fill="#5c2e9b"/><path d="M453.13 330.539L330.533 453.136 13.831 136.433 136.427 13.837 453.13 330.539z" data-original="#EA596E" data-old_color="#977bc5" fill="#977bc5"/><path d="M177.294 54.694L54.697 177.29 34.26 156.866 156.856 34.255l20.438 20.439zM432.699 310.102L310.102 432.699l-20.437-20.437L412.276 289.68l20.423 20.422z" data-original="#292F33" fill="#292f33"/><path d="M133.023 129.623c-21.633 21.618 6.77 85.078 63.417 141.754 56.661 56.648 120.136 85.035 141.754 63.417 21.633-21.618-6.756-85.092-63.417-141.754s-120.136-85.049-141.754-63.417" data-original="#BE1931" data-old_color="#BE1931" fill="#4d3b42"/></symbol><symbol id="red" viewBox="0 0 512 512"><path d="M106.336 4.235L4.235 106.351c-5.646 5.632-5.646 14.763 0 20.424l336.954 336.94c5.646 5.646 14.763 5.646 20.437 0 10.226-10.24 113.182 44.658 120.819 48.285L512 482.588c-3.627-7.624-58.525-110.735-48.285-120.975a14.404 14.404 0 0 0 0-20.424L126.76 4.234c-5.633-5.645-14.778-5.645-20.424.001" data-original="#DD2E44" data-old_color="#4D3B42" fill="maroon"/><path d="M453.13 330.539L330.533 453.136 13.831 136.433 136.427 13.837 453.13 330.539z" data-original="#EA596E" data-old_color="#e0a1a9" fill="#e0a1a9"/><path d="M177.294 54.694L54.697 177.29 34.26 156.866 156.856 34.255l20.438 20.439zM432.699 310.102L310.102 432.699l-20.437-20.437L412.276 289.68l20.423 20.422z" data-original="#292F33" fill="#292f33"/><path d="M133.023 129.623c-21.633 21.618 6.77 85.078 63.417 141.754 56.661 56.648 120.136 85.035 141.754 63.417 21.633-21.618-6.756-85.092-63.417-141.754s-120.136-85.049-141.754-63.417" data-original="#BE1931" class="active-path" data-old_color="#BE1931" fill="#4d3b42"/></symbol><symbol id="ring" viewBox="0 0 1024 1024"><defs><style/></defs><path d="M512 0C229.228 0 0 229.228 0 512s229.228 512 512 512 512-229.228 512-512S794.772 0 512 0zM306.028 179.323l51.952 51.942c-73.436 51.938-121.81 134.354-127.176 229.29H159.15c5.376-114.643 60.902-214.959 146.878-281.232zm137.927 619.766H587.26c0 10.762-1.792 19.722-5.376 28.672-8.93 21.488-28.667 37.621-51.948 42.992-5.365 1.777-8.95 1.777-14.325 1.777-39.394.015-71.655-32.225-71.655-73.441zm358.257-34.028H229.007v-35.814l71.655-71.64V478.465c0-109.271 59.1-200.622 161.208-225.705v-25.067c0-30.46 23.276-53.74 53.74-53.74 30.448 0 53.744 23.28 53.744 53.74v25.067c102.093 23.29 161.203 116.434 161.203 225.705v179.144l71.65 71.639v35.814h.005zm-1.787-304.507c-5.376-94.935-53.76-177.351-127.191-229.289l51.947-51.942c84.194 66.268 141.507 166.59 146.883 281.231h-71.639z" fill="#eda200"/></symbol><symbol id="sliver" viewBox="0 0 512 512"><path d="M106.336 4.235L4.235 106.351c-5.646 5.632-5.646 14.763 0 20.424l336.954 336.94c5.646 5.646 14.763 5.646 20.437 0 10.226-10.24 113.182 44.658 120.819 48.285L512 482.588c-3.627-7.624-58.525-110.735-48.285-120.975a14.404 14.404 0 0 0 0-20.424L126.76 4.234c-5.633-5.645-14.778-5.645-20.424.001" data-original="#DD2E44" class="active-path" data-old_color="#aaaaaa" fill="#aaa"/><path d="M453.13 330.539L330.533 453.136 13.831 136.433 136.427 13.837 453.13 330.539z" data-original="#EA596E" data-old_color="#c8c8c8" fill="#c8c8c8"/><path d="M177.294 54.694L54.697 177.29 34.26 156.866 156.856 34.255l20.438 20.439zM432.699 310.102L310.102 432.699l-20.437-20.437L412.276 289.68l20.423 20.422z" data-original="#292F33" fill="#292f33"/><path d="M133.023 129.623c-21.633 21.618 6.77 85.078 63.417 141.754 56.661 56.648 120.136 85.035 141.754 63.417 21.633-21.618-6.756-85.092-63.417-141.754s-120.136-85.049-141.754-63.417" data-original="#BE1931" data-old_color="#4d3b42" fill="#4d3b42"/></symbol><symbol id="smiling" viewBox="0 0 1024 1024"><defs><style/></defs><path d="M887.725 513.034c0 209.326-169.761 379.087-379.087 379.087-209.325-.13-379.086-169.761-379.086-379.087 0-209.325 169.761-379.087 379.086-379.087 50.425 0 98.522 9.827 142.481 27.67 138.732 56.242 236.606 192.387 236.606 351.417zm0 0" fill="#FBDF6C"/><path d="M580.784 836.137c-209.325 0-379.087-169.761-379.087-379.086 0-111.839 48.485-212.429 125.543-281.73-122.699 62.707-206.739 190.32-206.739 337.713 0 209.326 169.762 379.087 379.087 379.087 97.487 0 186.44-36.848 253.543-97.357-51.717 26.375-110.287 41.373-172.347 41.373zm0 0" fill="#FAC56B"/><path d="M289.099 486.53c-28.186 0-50.941 22.755-50.941 50.94H340.04c0-28.056-22.884-50.94-50.941-50.94zm444.638 0c-28.185 0-50.941 22.755-50.941 50.94h102.012c-.13-28.056-23.014-50.94-51.07-50.94zm0 0" fill="#F8A880"/><path d="M347.54 395.636c0-19.91 16.161-36.072 36.072-36.072s36.073 16.161 36.073 36.072a15.34 15.34 0 0 0 15.386 15.386 15.34 15.34 0 0 0 15.386-15.386c0-36.848-29.996-66.973-66.974-66.973-36.849 0-66.974 29.996-66.974 66.973a15.34 15.34 0 0 0 15.386 15.386c8.792 0 15.644-6.852 15.644-15.386m291.556-66.973c-36.849 0-66.974 29.996-66.974 66.973a15.34 15.34 0 0 0 15.386 15.386 15.34 15.34 0 0 0 15.386-15.386c0-19.91 16.162-36.072 36.073-36.072s36.072 16.161 36.072 36.072a15.34 15.34 0 0 0 15.386 15.386 15.34 15.34 0 0 0 15.386-15.386c.259-36.848-29.867-66.973-66.715-66.973" fill="#666"/><path d="M511.354 789.98c-109.64 0-198.465-88.824-198.465-198.465h396.8c.13 109.64-88.695 198.465-198.335 198.465zm0 0" fill="#FFF"/><path d="M332.412 677.495a191.536 191.536 0 0 0 18.489 30.901h320.905a191.536 191.536 0 0 0 18.489-30.901H332.412zm0 0" fill="#E6E6E6"/><path d="M511.354 809.632c-115.2 0-208.809-93.737-208.809-208.808 0-13.446 10.99-24.436 24.437-24.436h368.743c13.447 0 24.437 10.99 24.437 24.436.129 115.07-93.608 208.808-208.808 208.808zM326.982 596.558c-2.327 0-4.138 1.81-4.138 4.137 0 103.951 84.558 188.509 188.51 188.509s188.509-84.558 188.509-188.51c0-2.326-1.81-4.136-4.138-4.136H326.982zm0 0" fill="#666"/><path d="M511.354 907.636c-53.398 0-105.245-10.472-153.988-31.16-47.063-19.91-89.471-48.484-125.802-84.815-36.332-36.332-64.905-78.61-84.817-125.802-20.557-48.615-31.03-100.461-31.03-153.859s10.473-105.244 31.16-153.988c19.91-47.063 48.485-89.47 84.816-125.802 36.331-36.331 78.61-64.905 125.802-84.816 48.743-20.687 100.59-31.03 153.988-31.03s105.244 10.472 153.988 31.03c47.062 19.911 89.47 48.485 125.802 84.816 36.331 36.331 64.905 78.61 84.816 125.802 20.687 48.744 31.16 100.59 31.16 153.988s-10.473 105.244-31.16 153.988c-19.911 47.063-48.485 89.47-84.816 125.802-36.332 36.331-78.61 64.905-125.802 84.816-48.873 20.558-100.72 31.03-154.117 31.03zm0-763.087c-202.602 0-367.451 164.849-367.451 367.451s164.849 367.45 367.45 367.45S878.805 714.603 878.805 512s-164.848-367.45-367.45-367.45zm0 0" fill="#666"/></symbol><symbol id="tiffany" viewBox="0 0 512 512"><path d="M106.336 4.235L4.235 106.351c-5.646 5.632-5.646 14.763 0 20.424l336.954 336.94c5.646 5.646 14.763 5.646 20.437 0 10.226-10.24 113.182 44.658 120.819 48.285L512 482.588c-3.627-7.624-58.525-110.735-48.285-120.975a14.404 14.404 0 0 0 0-20.424L126.76 4.234c-5.633-5.645-14.778-5.645-20.424.001" data-original="#DD2E44" class="active-path" data-old_color="#19a79b" fill="#19a79b"/><path d="M453.13 330.539L330.533 453.136 13.831 136.433 136.427 13.837 453.13 330.539z" data-original="#EA596E" data-old_color="#78d0c2" fill="#78d0c2"/><path d="M177.294 54.694L54.697 177.29 34.26 156.866 156.856 34.255l20.438 20.439zM432.699 310.102L310.102 432.699l-20.437-20.437L412.276 289.68l20.423 20.422z" data-original="#292F33" fill="#292f33"/><path d="M133.023 129.623c-21.633 21.618 6.77 85.078 63.417 141.754 56.661 56.648 120.136 85.035 141.754 63.417 21.633-21.618-6.756-85.092-63.417-141.754s-120.136-85.049-141.754-63.417" data-original="#BE1931" data-old_color="#BE1931" fill="#4d3b42"/></symbol><symbol id="white" viewBox="0 0 512 512"><path d="M106.336 4.235L4.235 106.351c-5.646 5.632-5.646 14.763 0 20.424l336.954 336.94c5.646 5.646 14.763 5.646 20.437 0 10.226-10.24 113.182 44.658 120.819 48.285L512 482.588c-3.627-7.624-58.525-110.735-48.285-120.975a14.404 14.404 0 0 0 0-20.424L126.76 4.234c-5.633-5.645-14.778-5.645-20.424.001" data-original="#DD2E44" data-old_color="#ffffff" fill="#fff"/><path d="M453.13 330.539L330.533 453.136 13.831 136.433 136.427 13.837 453.13 330.539z" data-original="#EA596E" class="active-path" data-old_color="#faf8fb" fill="#faf8fb"/><path d="M177.294 54.694L54.697 177.29 34.26 156.866 156.856 34.255l20.438 20.439zM432.699 310.102L310.102 432.699l-20.437-20.437L412.276 289.68l20.423 20.422z" data-original="#292F33" fill="#292f33"/><path d="M133.023 129.623c-21.633 21.618 6.77 85.078 63.417 141.754 56.661 56.648 120.136 85.035 141.754 63.417 21.633-21.618-6.756-85.092-63.417-141.754s-120.136-85.049-141.754-63.417" data-original="#BE1931" data-old_color="#4d3b42" fill="#4d3b42"/></symbol><symbol id="yellow" viewBox="0 0 512 512"><path d="M106.336 4.235L4.235 106.351c-5.646 5.632-5.646 14.763 0 20.424l336.954 336.94c5.646 5.646 14.763 5.646 20.437 0 10.226-10.24 113.182 44.658 120.819 48.285L512 482.588c-3.627-7.624-58.525-110.735-48.285-120.975a14.404 14.404 0 0 0 0-20.424L126.76 4.234c-5.633-5.645-14.778-5.645-20.424.001" data-original="#DD2E44" class="active-path" data-old_color="#c9c71a" fill="#c9c71a"/><path d="M453.13 330.539L330.533 453.136 13.831 136.433 136.427 13.837 453.13 330.539z" data-original="#EA596E" data-old_color="#efefb1" fill="#efefb1"/><path d="M177.294 54.694L54.697 177.29 34.26 156.866 156.856 34.255l20.438 20.439zM432.699 310.102L310.102 432.699l-20.437-20.437L412.276 289.68l20.423 20.422z" data-original="#292F33" fill="#292f33"/><path d="M133.023 129.623c-21.633 21.618 6.77 85.078 63.417 141.754 56.661 56.648 120.136 85.035 141.754 63.417 21.633-21.618-6.756-85.092-63.417-141.754s-120.136-85.049-141.754-63.417" data-original="#BE1931" data-old_color="#BE1931" fill="#4d3b42"/></symbol></svg>