<svg version="1.1" xmlns="http://www.w3.org/2000/svg"><symbol id="ring" viewBox="0 0 512 512"><circle cx="256" cy="256" r="256" fill="#ffd164"/><path d="M372.427 221.524c-4.556-9.266-13.806-15.024-24.137-15.024h-47.573l39.863-82.472c4.782-9.907 4.153-21.383-1.694-30.694-5.839-9.319-15.895-14.883-26.903-14.883h-79.371a31.722 31.722 0 0 0-30.145 21.77l-51.323 154.891c-2.71 8.177-1.315 17.234 3.734 24.202 5.032 6.992 13.185 11.161 21.806 11.161h47.702l-37.161 118.29c-2.371 7.581-1.065 15.565 3.589 21.903 4.653 6.331 12.113 10.113 19.968 10.113 7.645 0 14.734-3.516 19.444-9.637l139.395-181.339c6.29-8.176 7.371-19.015 2.806-28.281z" fill="#ffe17d"/><path d="M348.289 227.149h-80.483l54.183-112.102c3.567-7.38-1.809-15.95-10.006-15.95h-79.37c-4.791 0-9.043 3.07-10.549 7.618l-51.319 154.888c-1.343 4.052 1.675 8.231 5.944 8.231h75.823l-45.583 145.12c-1.329 4.231 4.229 7.124 6.932 3.607l139.393-181.335c3.165-4.118.229-10.077-4.965-10.077z" fill="#fff"/><path d="M289.032 478.968c-141.385 0-256-114.615-256-256 0-62.282 22.26-119.352 59.233-163.735C35.895 106.192 0 176.897 0 256c0 141.385 114.615 256 256 256 79.104 0 149.809-35.896 196.769-92.267-44.384 36.974-101.454 59.235-163.737 59.235z" fill="#ffc350"/></symbol><symbol id="black" viewBox="0 0 512 512"><path d="M106.336 4.235L4.235 106.351c-5.646 5.632-5.646 14.763 0 20.424l336.954 336.94c5.646 5.646 14.763 5.646 20.437 0 10.226-10.24 113.182 44.658 120.819 48.285L512 482.588c-3.627-7.624-58.525-110.735-48.285-120.975a14.404 14.404 0 0 0 0-20.424L126.76 4.234c-5.633-5.645-14.778-5.645-20.424.001" data-original="#DD2E44" class="active-path" data-old_color="#5B3F33"/><path d="M453.13 330.539L330.533 453.136 13.831 136.433 136.427 13.837 453.13 330.539z" data-original="#EA596E" data-old_color="#79797b" fill="#79797b"/><path d="M177.294 54.694L54.697 177.29 34.26 156.866 156.856 34.255l20.438 20.439zM432.699 310.102L310.102 432.699l-20.437-20.437L412.276 289.68l20.423 20.422z" data-original="#292F33" fill="#292f33"/><path d="M133.023 129.623c-21.633 21.618 6.77 85.078 63.417 141.754 56.661 56.648 120.136 85.035 141.754 63.417 21.633-21.618-6.756-85.092-63.417-141.754s-120.136-85.049-141.754-63.417" data-original="#BE1931" data-old_color="#4d3b42" fill="#4d3b42"/></symbol><symbol id="blue" viewBox="0 0 512 512"><path d="M106.336 4.235L4.235 106.351c-5.646 5.632-5.646 14.763 0 20.424l336.954 336.94c5.646 5.646 14.763 5.646 20.437 0 10.226-10.24 113.182 44.658 120.819 48.285L512 482.588c-3.627-7.624-58.525-110.735-48.285-120.975a14.404 14.404 0 0 0 0-20.424L126.76 4.234c-5.633-5.645-14.778-5.645-20.424.001" data-original="#DD2E44" class="active-path" data-old_color="#1d2089" fill="#1d2089"/><path d="M453.13 330.539L330.533 453.136 13.831 136.433 136.427 13.837 453.13 330.539z" data-original="#EA596E" data-old_color="#766fb3" fill="#766fb3"/><path d="M177.294 54.694L54.697 177.29 34.26 156.866 156.856 34.255l20.438 20.439zM432.699 310.102L310.102 432.699l-20.437-20.437L412.276 289.68l20.423 20.422z" data-original="#292F33" fill="#292f33"/><path d="M133.023 129.623c-21.633 21.618 6.77 85.078 63.417 141.754 56.661 56.648 120.136 85.035 141.754 63.417 21.633-21.618-6.756-85.092-63.417-141.754s-120.136-85.049-141.754-63.417" data-original="#BE1931" data-old_color="#BE1931" fill="#4d3b42"/></symbol><symbol id="brown" viewBox="0 0 512 512"><path d="M106.336 4.235L4.235 106.351c-5.646 5.632-5.646 14.763 0 20.424l336.954 336.94c5.646 5.646 14.763 5.646 20.437 0 10.226-10.24 113.182 44.658 120.819 48.285L512 482.588c-3.627-7.624-58.525-110.735-48.285-120.975a14.404 14.404 0 0 0 0-20.424L126.76 4.234c-5.633-5.645-14.778-5.645-20.424.001" data-original="#DD2E44" class="active-path" data-old_color="#5b3f33" fill="#5b3f33"/><path d="M453.13 330.539L330.533 453.136 13.831 136.433 136.427 13.837 453.13 330.539z" data-original="#EA596E" data-old_color="#9b8b8b" fill="#9b8b8b"/><path d="M177.294 54.694L54.697 177.29 34.26 156.866 156.856 34.255l20.438 20.439zM432.699 310.102L310.102 432.699l-20.437-20.437L412.276 289.68l20.423 20.422z" data-original="#292F33" fill="#292f33"/><path d="M133.023 129.623c-21.633 21.618 6.77 85.078 63.417 141.754 56.661 56.648 120.136 85.035 141.754 63.417 21.633-21.618-6.756-85.092-63.417-141.754s-120.136-85.049-141.754-63.417" data-original="#BE1931" data-old_color="#4d3b42" fill="#4d3b42"/></symbol><symbol id="gray" viewBox="0 0 512 512"><path d="M106.336 4.235L4.235 106.351c-5.646 5.632-5.646 14.763 0 20.424l336.954 336.94c5.646 5.646 14.763 5.646 20.437 0 10.226-10.24 113.182 44.658 120.819 48.285L512 482.588c-3.627-7.624-58.525-110.735-48.285-120.975a14.404 14.404 0 0 0 0-20.424L126.76 4.234c-5.633-5.645-14.778-5.645-20.424.001" data-original="#DD2E44" class="active-path" data-old_color="#b18d73" fill="#b18d73"/><path d="M453.13 330.539L330.533 453.136 13.831 136.433 136.427 13.837 453.13 330.539z" data-original="#EA596E" data-old_color="#b3a69e" fill="#b3a69e"/><path d="M177.294 54.694L54.697 177.29 34.26 156.866 156.856 34.255l20.438 20.439zM432.699 310.102L310.102 432.699l-20.437-20.437L412.276 289.68l20.423 20.422z" data-original="#292F33" fill="#292f33"/><path d="M133.023 129.623c-21.633 21.618 6.77 85.078 63.417 141.754 56.661 56.648 120.136 85.035 141.754 63.417 21.633-21.618-6.756-85.092-63.417-141.754s-120.136-85.049-141.754-63.417" data-original="#BE1931" data-old_color="#4d3b42" fill="#4d3b42"/></symbol><symbol id="green" viewBox="0 0 512 512"><path d="M106.336 4.235L4.235 106.351c-5.646 5.632-5.646 14.763 0 20.424l336.954 336.94c5.646 5.646 14.763 5.646 20.437 0 10.226-10.24 113.182 44.658 120.819 48.285L512 482.588c-3.627-7.624-58.525-110.735-48.285-120.975a14.404 14.404 0 0 0 0-20.424L126.76 4.234c-5.633-5.645-14.778-5.645-20.424.001" data-original="#DD2E44" class="active-path" data-old_color="#18981d" fill="#18981d"/><path d="M453.13 330.539L330.533 453.136 13.831 136.433 136.427 13.837 453.13 330.539z" data-original="#EA596E" data-old_color="#71b175" fill="#71b175"/><path d="M177.294 54.694L54.697 177.29 34.26 156.866 156.856 34.255l20.438 20.439zM432.699 310.102L310.102 432.699l-20.437-20.437L412.276 289.68l20.423 20.422z" data-original="#292F33" fill="#292f33"/><path d="M133.023 129.623c-21.633 21.618 6.77 85.078 63.417 141.754 56.661 56.648 120.136 85.035 141.754 63.417 21.633-21.618-6.756-85.092-63.417-141.754s-120.136-85.049-141.754-63.417" data-original="#BE1931" data-old_color="#BE1931" fill="#4d3b42"/></symbol><symbol id="orange" viewBox="0 0 512 512"><path d="M106.336 4.235L4.235 106.351c-5.646 5.632-5.646 14.763 0 20.424l336.954 336.94c5.646 5.646 14.763 5.646 20.437 0 10.226-10.24 113.182 44.658 120.819 48.285L512 482.588c-3.627-7.624-58.525-110.735-48.285-120.975a14.404 14.404 0 0 0 0-20.424L126.76 4.234c-5.633-5.645-14.778-5.645-20.424.001" data-original="#DD2E44" class="active-path" data-old_color="#dd7013" fill="#dd7013"/><path d="M453.13 330.539L330.533 453.136 13.831 136.433 136.427 13.837 453.13 330.539z" data-original="#EA596E" data-old_color="#f6bc8c" fill="#f6bc8c"/><path d="M177.294 54.694L54.697 177.29 34.26 156.866 156.856 34.255l20.438 20.439zM432.699 310.102L310.102 432.699l-20.437-20.437L412.276 289.68l20.423 20.422z" data-original="#292F33" fill="#292f33"/><path d="M133.023 129.623c-21.633 21.618 6.77 85.078 63.417 141.754 56.661 56.648 120.136 85.035 141.754 63.417 21.633-21.618-6.756-85.092-63.417-141.754s-120.136-85.049-141.754-63.417" data-original="#BE1931" data-old_color="#BE1931" fill="#4d3b42"/></symbol><symbol id="pink" viewBox="0 0 512 512"><path d="M106.336 4.235L4.235 106.351c-5.646 5.632-5.646 14.763 0 20.424l336.954 336.94c5.646 5.646 14.763 5.646 20.437 0 10.226-10.24 113.182 44.658 120.819 48.285L512 482.588c-3.627-7.624-58.525-110.735-48.285-120.975a14.404 14.404 0 0 0 0-20.424L126.76 4.234c-5.633-5.645-14.778-5.645-20.424.001" data-original="#DD2E44" data-old_color="#7F6AA3" fill="#930192"/><path d="M453.13 330.539L330.533 453.136 13.831 136.433 136.427 13.837 453.13 330.539z" data-original="#EA596E" data-old_color="#9a74a5" fill="#9a74a5"/><path d="M177.294 54.694L54.697 177.29 34.26 156.866 156.856 34.255l20.438 20.439zM432.699 310.102L310.102 432.699l-20.437-20.437L412.276 289.68l20.423 20.422z" data-original="#292F33" fill="#292f33"/><path d="M133.023 129.623c-21.633 21.618 6.77 85.078 63.417 141.754 56.661 56.648 120.136 85.035 141.754 63.417 21.633-21.618-6.756-85.092-63.417-141.754s-120.136-85.049-141.754-63.417" data-original="#BE1931" class="active-path" data-old_color="#4d3b42" fill="#4d3b42"/></symbol><symbol id="purple" viewBox="0 0 512 512"><path d="M106.336 4.235L4.235 106.351c-5.646 5.632-5.646 14.763 0 20.424l336.954 336.94c5.646 5.646 14.763 5.646 20.437 0 10.226-10.24 113.182 44.658 120.819 48.285L512 482.588c-3.627-7.624-58.525-110.735-48.285-120.975a14.404 14.404 0 0 0 0-20.424L126.76 4.234c-5.633-5.645-14.778-5.645-20.424.001" data-original="#DD2E44" class="active-path" data-old_color="#5c2e9b" fill="#5c2e9b"/><path d="M453.13 330.539L330.533 453.136 13.831 136.433 136.427 13.837 453.13 330.539z" data-original="#EA596E" data-old_color="#977bc5" fill="#977bc5"/><path d="M177.294 54.694L54.697 177.29 34.26 156.866 156.856 34.255l20.438 20.439zM432.699 310.102L310.102 432.699l-20.437-20.437L412.276 289.68l20.423 20.422z" data-original="#292F33" fill="#292f33"/><path d="M133.023 129.623c-21.633 21.618 6.77 85.078 63.417 141.754 56.661 56.648 120.136 85.035 141.754 63.417 21.633-21.618-6.756-85.092-63.417-141.754s-120.136-85.049-141.754-63.417" data-original="#BE1931" data-old_color="#BE1931" fill="#4d3b42"/></symbol><symbol id="red" viewBox="0 0 512 512"><path d="M106.336 4.235L4.235 106.351c-5.646 5.632-5.646 14.763 0 20.424l336.954 336.94c5.646 5.646 14.763 5.646 20.437 0 10.226-10.24 113.182 44.658 120.819 48.285L512 482.588c-3.627-7.624-58.525-110.735-48.285-120.975a14.404 14.404 0 0 0 0-20.424L126.76 4.234c-5.633-5.645-14.778-5.645-20.424.001" data-original="#DD2E44" data-old_color="#4D3B42" fill="maroon"/><path d="M453.13 330.539L330.533 453.136 13.831 136.433 136.427 13.837 453.13 330.539z" data-original="#EA596E" data-old_color="#e0a1a9" fill="#e0a1a9"/><path d="M177.294 54.694L54.697 177.29 34.26 156.866 156.856 34.255l20.438 20.439zM432.699 310.102L310.102 432.699l-20.437-20.437L412.276 289.68l20.423 20.422z" data-original="#292F33" fill="#292f33"/><path d="M133.023 129.623c-21.633 21.618 6.77 85.078 63.417 141.754 56.661 56.648 120.136 85.035 141.754 63.417 21.633-21.618-6.756-85.092-63.417-141.754s-120.136-85.049-141.754-63.417" data-original="#BE1931" class="active-path" data-old_color="#BE1931" fill="#4d3b42"/></symbol><symbol id="sliver" viewBox="0 0 512 512"><path d="M106.336 4.235L4.235 106.351c-5.646 5.632-5.646 14.763 0 20.424l336.954 336.94c5.646 5.646 14.763 5.646 20.437 0 10.226-10.24 113.182 44.658 120.819 48.285L512 482.588c-3.627-7.624-58.525-110.735-48.285-120.975a14.404 14.404 0 0 0 0-20.424L126.76 4.234c-5.633-5.645-14.778-5.645-20.424.001" data-original="#DD2E44" class="active-path" data-old_color="#aaaaaa" fill="#aaa"/><path d="M453.13 330.539L330.533 453.136 13.831 136.433 136.427 13.837 453.13 330.539z" data-original="#EA596E" data-old_color="#c8c8c8" fill="#c8c8c8"/><path d="M177.294 54.694L54.697 177.29 34.26 156.866 156.856 34.255l20.438 20.439zM432.699 310.102L310.102 432.699l-20.437-20.437L412.276 289.68l20.423 20.422z" data-original="#292F33" fill="#292f33"/><path d="M133.023 129.623c-21.633 21.618 6.77 85.078 63.417 141.754 56.661 56.648 120.136 85.035 141.754 63.417 21.633-21.618-6.756-85.092-63.417-141.754s-120.136-85.049-141.754-63.417" data-original="#BE1931" data-old_color="#4d3b42" fill="#4d3b42"/></symbol><symbol id="smiling" viewBox="0 0 512 512"><path d="M512 256c0 141.382-114.618 256-256 256S0 397.382 0 256 114.618 0 256 0s256 114.618 256 256" fill="#ffcc4d"/><path d="M17.635 156.7c3.414 3.399 20.438 13.625 23.851 23.822s10.24 68.04 30.692 85.063c21.106 17.536 100.65 11.007 115.897 3.414 34.091-16.995 38.273-64.442 44.303-88.477 3.398-13.61 23.85-13.61 23.85-13.61s20.467 0 23.866 13.595c6.03 24.05 10.24 71.495 44.302 88.477 15.26 7.609 94.805 14.137 115.94-3.399 20.409-17.024 27.235-74.866 30.649-85.078 3.385-10.197 20.438-20.408 23.851-23.807 3.428-3.399 3.428-17.01 0-20.422-6.812-6.8-87.239-12.858-173.839-3.4-17.28 1.892-23.85 6.813-64.767 6.813-40.889 0-47.488-4.921-64.754-6.799-86.571-9.472-167.026-3.413-173.838 3.385-3.402 3.414-3.402 17.024-.003 20.423" fill="#292f33"/><path d="M388.765 336.058c-2.531-2.29-6.315-2.433-9.031-.413-.555.413-55.78 41.245-123.734 41.245-67.782 0-123.192-40.832-123.734-41.245a7.161 7.161 0 0 0-9.031.413c-2.517 2.275-3.086 6.03-1.337 8.93 1.835 3.058 45.752 74.568 134.1 74.568S388.28 348.047 390.1 344.99a7.09 7.09 0 0 0-1.335-8.932" fill="#664500"/></symbol><symbol id="tiffany" viewBox="0 0 512 512"><path d="M106.336 4.235L4.235 106.351c-5.646 5.632-5.646 14.763 0 20.424l336.954 336.94c5.646 5.646 14.763 5.646 20.437 0 10.226-10.24 113.182 44.658 120.819 48.285L512 482.588c-3.627-7.624-58.525-110.735-48.285-120.975a14.404 14.404 0 0 0 0-20.424L126.76 4.234c-5.633-5.645-14.778-5.645-20.424.001" data-original="#DD2E44" class="active-path" data-old_color="#19a79b" fill="#19a79b"/><path d="M453.13 330.539L330.533 453.136 13.831 136.433 136.427 13.837 453.13 330.539z" data-original="#EA596E" data-old_color="#78d0c2" fill="#78d0c2"/><path d="M177.294 54.694L54.697 177.29 34.26 156.866 156.856 34.255l20.438 20.439zM432.699 310.102L310.102 432.699l-20.437-20.437L412.276 289.68l20.423 20.422z" data-original="#292F33" fill="#292f33"/><path d="M133.023 129.623c-21.633 21.618 6.77 85.078 63.417 141.754 56.661 56.648 120.136 85.035 141.754 63.417 21.633-21.618-6.756-85.092-63.417-141.754s-120.136-85.049-141.754-63.417" data-original="#BE1931" data-old_color="#BE1931" fill="#4d3b42"/></symbol><symbol id="white" viewBox="0 0 512 512"><path d="M106.336 4.235L4.235 106.351c-5.646 5.632-5.646 14.763 0 20.424l336.954 336.94c5.646 5.646 14.763 5.646 20.437 0 10.226-10.24 113.182 44.658 120.819 48.285L512 482.588c-3.627-7.624-58.525-110.735-48.285-120.975a14.404 14.404 0 0 0 0-20.424L126.76 4.234c-5.633-5.645-14.778-5.645-20.424.001" data-original="#DD2E44" data-old_color="#ffffff" fill="#fff"/><path d="M453.13 330.539L330.533 453.136 13.831 136.433 136.427 13.837 453.13 330.539z" data-original="#EA596E" class="active-path" data-old_color="#faf8fb" fill="#faf8fb"/><path d="M177.294 54.694L54.697 177.29 34.26 156.866 156.856 34.255l20.438 20.439zM432.699 310.102L310.102 432.699l-20.437-20.437L412.276 289.68l20.423 20.422z" data-original="#292F33" fill="#292f33"/><path d="M133.023 129.623c-21.633 21.618 6.77 85.078 63.417 141.754 56.661 56.648 120.136 85.035 141.754 63.417 21.633-21.618-6.756-85.092-63.417-141.754s-120.136-85.049-141.754-63.417" data-original="#BE1931" data-old_color="#4d3b42" fill="#4d3b42"/></symbol><symbol id="yellow" viewBox="0 0 512 512"><path d="M106.336 4.235L4.235 106.351c-5.646 5.632-5.646 14.763 0 20.424l336.954 336.94c5.646 5.646 14.763 5.646 20.437 0 10.226-10.24 113.182 44.658 120.819 48.285L512 482.588c-3.627-7.624-58.525-110.735-48.285-120.975a14.404 14.404 0 0 0 0-20.424L126.76 4.234c-5.633-5.645-14.778-5.645-20.424.001" data-original="#DD2E44" class="active-path" data-old_color="#c9c71a" fill="#c9c71a"/><path d="M453.13 330.539L330.533 453.136 13.831 136.433 136.427 13.837 453.13 330.539z" data-original="#EA596E" data-old_color="#efefb1" fill="#efefb1"/><path d="M177.294 54.694L54.697 177.29 34.26 156.866 156.856 34.255l20.438 20.439zM432.699 310.102L310.102 432.699l-20.437-20.437L412.276 289.68l20.423 20.422z" data-original="#292F33" fill="#292f33"/><path d="M133.023 129.623c-21.633 21.618 6.77 85.078 63.417 141.754 56.661 56.648 120.136 85.035 141.754 63.417 21.633-21.618-6.756-85.092-63.417-141.754s-120.136-85.049-141.754-63.417" data-original="#BE1931" data-old_color="#BE1931" fill="#4d3b42"/></symbol></svg>